<?xml version="1.0" encoding="utf-8"?>
<!-- Generator: Adobe Illustrator 23.0.6, SVG Export Plug-In . SVG Version: 6.00 Build 0)  -->
<svg version="1.1" id="Layer_1" xmlns="http://www.w3.org/2000/svg" xmlns:xlink="http://www.w3.org/1999/xlink" x="0px" y="0px"
	 viewBox="0 0 375.49 70.59" style="enable-background:new 0 0 375.49 70.59;" xml:space="preserve">
<style type="text/css">
	.st0{fill:#F06794;}
	.st1{fill:#545554;}
</style>
<g>
	<path class="st0" d="M176.5,66.55c-8.85,0-16.52-2.95-22.81-8.76c-6.25-5.77-9.42-12.89-9.42-21.14c0-8.91,3.19-16.62,9.47-22.9
		c6.28-6.29,13.95-9.48,22.8-9.48c8.89,0,16.58,2.98,22.86,8.84c6.29,5.88,9.48,13.09,9.48,21.44c0,5.49-1.58,10.23-4.69,14.09
		c-3.14,3.95-6.98,5.95-11.43,5.95c-2.52,0-4.76-0.6-6.65-1.79c-1.56-1.03-2.64-2.29-3.23-3.76c-0.86,1.01-1.96,1.83-3.27,2.47
		c-1.67,0.81-3.53,1.22-5.52,1.22c-4.29,0-7.98-1.66-10.97-4.93c-2.93-3.2-4.42-7.08-4.42-11.51c0-4.33,1.49-8.1,4.42-11.2
		c3-3.11,6.69-4.69,10.97-4.69c1.87,0,3.57,0.27,5.08,0.81c1.24,0.43,2.31,1.03,3.2,1.79v-1.98h7.11v23.68
		c0,0.72,0.32,1.34,0.97,1.91c0.62,0.53,1.39,0.79,2.34,0.79c2.41,0,4.41-1.21,6.13-3.71c1.74-2.48,2.62-5.56,2.62-9.15
		c0-6.32-2.45-11.83-7.28-16.35c-4.89-4.48-10.86-6.75-17.72-6.75c-6.86,0-12.79,2.48-17.63,7.36c-4.84,4.89-7.3,10.89-7.3,17.84
		c0,6.38,2.45,11.88,7.27,16.35c4.84,4.53,10.76,6.83,17.62,6.83c3.25,0,6.25-0.36,8.93-1.07c1.96-0.53,3.7-1.23,5.17-2.09l0.51-0.3
		l3.2,5.97l-0.48,0.27c-1.94,1.12-4.2,2.02-6.71,2.68C183.88,66.12,180.31,66.55,176.5,66.55z M174.1,27.43
		c-2.28,0-4.11,0.87-5.62,2.67c-1.51,1.75-2.27,3.85-2.27,6.23c0,2.44,0.76,4.56,2.27,6.3c1.51,1.8,3.35,2.67,5.62,2.67
		c2.34,0,4.25-0.88,5.86-2.68c1.61-1.75,2.42-3.87,2.42-6.3c0-2.43-0.81-4.54-2.41-6.29C178.36,28.29,176.44,27.43,174.1,27.43z"/>
</g>
<g>
	<path class="st1" d="M5.84,56.91C5.32,56.39,5.06,55.75,5.06,55V15.71c0-0.75,0.26-1.38,0.78-1.91c0.52-0.52,1.16-0.78,1.91-0.78
		h12.24c3.21,0,6.12,0.77,8.75,2.31c2.62,1.54,4.69,3.64,6.22,6.31c1.52,2.67,2.28,5.6,2.28,8.81v9.81c0,3.21-0.76,6.14-2.28,8.81
		c-1.52,2.67-3.59,4.77-6.22,6.31c-2.62,1.54-5.54,2.31-8.75,2.31H7.75C7,57.69,6.36,57.43,5.84,56.91z M19.68,50.38
		c1.79,0,3.45-0.45,4.97-1.34c1.52-0.9,2.73-2.1,3.62-3.62c0.9-1.52,1.34-3.2,1.34-5.03V30.27c0-1.79-0.45-3.45-1.34-4.97
		c-0.9-1.52-2.1-2.73-3.62-3.62c-1.52-0.9-3.18-1.34-4.97-1.34h-7v30.05H19.68z"/>
	<path class="st1" d="M39.36,57.28c-0.29-0.27-0.44-0.61-0.44-1.03c0-0.21,0.02-0.37,0.06-0.5l13.56-41.67
		c0.12-0.42,0.36-0.75,0.72-1c0.35-0.25,0.76-0.37,1.22-0.37h4.87c0.46,0,0.86,0.12,1.22,0.37c0.35,0.25,0.59,0.58,0.72,1
		l13.56,41.67c0.04,0.12,0.06,0.29,0.06,0.5c0,0.42-0.15,0.76-0.44,1.03c-0.29,0.27-0.65,0.41-1.06,0.41h-4.5
		c-0.46,0-0.86-0.13-1.22-0.41c-0.35-0.27-0.59-0.61-0.72-1.03l-2.81-9H49.54l-2.81,9c-0.12,0.42-0.36,0.76-0.72,1.03
		c-0.35,0.27-0.76,0.41-1.22,0.41h-4.37C40,57.69,39.65,57.55,39.36,57.28z M61.97,40.2l-5.12-16.68L51.73,40.2H61.97z"/>
	<path class="st1" d="M84.71,57.31c-0.25-0.25-0.38-0.56-0.38-0.94V20.33H73.84c-0.37,0-0.69-0.12-0.94-0.38
		c-0.25-0.25-0.38-0.56-0.38-0.94v-4.69c0-0.38,0.12-0.69,0.38-0.94s0.56-0.38,0.94-0.38h28.61c0.38,0,0.69,0.12,0.94,0.38
		s0.38,0.56,0.38,0.94v4.69c0,0.38-0.12,0.69-0.38,0.94c-0.25,0.25-0.56,0.38-0.94,0.38H91.96v36.04c0,0.38-0.12,0.69-0.38,0.94
		c-0.25,0.25-0.56,0.38-0.94,0.38h-5C85.27,57.69,84.96,57.56,84.71,57.31z"/>
	<path class="st1" d="M101.83,57.28c-0.29-0.27-0.44-0.61-0.44-1.03c0-0.21,0.02-0.37,0.06-0.5l13.56-41.67
		c0.12-0.42,0.36-0.75,0.72-1c0.35-0.25,0.76-0.37,1.22-0.37h4.87c0.46,0,0.86,0.12,1.22,0.37c0.35,0.25,0.59,0.58,0.72,1
		l13.56,41.67c0.04,0.12,0.06,0.29,0.06,0.5c0,0.42-0.15,0.76-0.44,1.03c-0.29,0.27-0.65,0.41-1.06,0.41h-4.5
		c-0.46,0-0.86-0.13-1.22-0.41c-0.35-0.27-0.59-0.61-0.72-1.03l-2.81-9h-14.62l-2.81,9c-0.12,0.42-0.36,0.76-0.72,1.03
		c-0.35,0.27-0.76,0.41-1.22,0.41h-4.37C102.47,57.69,102.12,57.55,101.83,57.28z M124.44,40.2l-5.12-16.68L114.2,40.2H124.44z"/>
</g>
<g>
	<path class="st1" d="M221.15,57.31c-0.25-0.25-0.38-0.56-0.38-0.94V14.34c0-0.38,0.12-0.69,0.38-0.94
		c0.25-0.25,0.56-0.38,0.94-0.38h5c0.37,0,0.69,0.12,0.94,0.38c0.25,0.25,0.37,0.56,0.37,0.94V31.2h18.49V14.34
		c0-0.38,0.12-0.69,0.37-0.94s0.56-0.38,0.94-0.38h5c0.38,0,0.69,0.12,0.94,0.38s0.38,0.56,0.38,0.94v42.04
		c0,0.38-0.12,0.69-0.38,0.94c-0.25,0.25-0.56,0.38-0.94,0.38h-5c-0.37,0-0.69-0.12-0.94-0.38c-0.25-0.25-0.37-0.56-0.37-0.94V38.39
		h-18.49v17.99c0,0.38-0.12,0.69-0.37,0.94c-0.25,0.25-0.56,0.38-0.94,0.38h-5C221.71,57.69,221.4,57.56,221.15,57.31z"/>
	<path class="st1" d="M259.44,57.28c-0.29-0.27-0.44-0.61-0.44-1.03c0-0.21,0.02-0.37,0.06-0.5l13.56-41.67
		c0.12-0.42,0.36-0.75,0.72-1c0.35-0.25,0.76-0.37,1.22-0.37h4.87c0.46,0,0.86,0.12,1.22,0.37c0.35,0.25,0.59,0.58,0.72,1
		l13.56,41.67c0.04,0.12,0.06,0.29,0.06,0.5c0,0.42-0.15,0.76-0.44,1.03c-0.29,0.27-0.65,0.41-1.06,0.41h-4.5
		c-0.46,0-0.87-0.13-1.22-0.41c-0.35-0.27-0.59-0.61-0.72-1.03l-2.81-9h-14.62l-2.81,9c-0.12,0.42-0.36,0.76-0.72,1.03
		c-0.35,0.27-0.76,0.41-1.22,0.41h-4.37C260.08,57.69,259.73,57.55,259.44,57.28z M282.05,40.2l-5.12-16.68l-5.12,16.68H282.05z"/>
	<path class="st1" d="M299.73,57.31c-0.25-0.25-0.38-0.56-0.38-0.94V14.84c0-0.5,0.18-0.93,0.53-1.28c0.35-0.35,0.78-0.53,1.28-0.53
		h5.12c0.71,0,1.27,0.31,1.69,0.94l14.99,25.36l3,5.25V14.34c0-0.38,0.12-0.69,0.38-0.94c0.25-0.25,0.56-0.38,0.94-0.38h4.5
		c0.38,0,0.69,0.12,0.94,0.38s0.38,0.56,0.38,0.94v41.54c0,0.5-0.18,0.93-0.53,1.28c-0.35,0.35-0.78,0.53-1.28,0.53h-5.18
		c-0.71,0-1.27-0.31-1.69-0.94l-15.49-26.24l-2.44-4.25v30.11c0,0.42-0.12,0.74-0.38,0.97c-0.25,0.23-0.56,0.34-0.94,0.34h-4.5
		C300.29,57.69,299.98,57.56,299.73,57.31z"/>
	<path class="st1" d="M341.05,56.91c-0.52-0.52-0.78-1.16-0.78-1.91V15.71c0-0.75,0.26-1.38,0.78-1.91
		c0.52-0.52,1.16-0.78,1.91-0.78h12.24c3.21,0,6.12,0.77,8.75,2.31c2.62,1.54,4.69,3.64,6.22,6.31c1.52,2.67,2.28,5.6,2.28,8.81
		v9.81c0,3.21-0.76,6.14-2.28,8.81c-1.52,2.67-3.59,4.77-6.22,6.31c-2.62,1.54-5.54,2.31-8.75,2.31h-12.24
		C342.21,57.69,341.57,57.43,341.05,56.91z M354.89,50.38c1.79,0,3.45-0.45,4.97-1.34c1.52-0.9,2.73-2.1,3.62-3.62
		c0.9-1.52,1.34-3.2,1.34-5.03V30.27c0-1.79-0.45-3.45-1.34-4.97c-0.9-1.52-2.1-2.73-3.62-3.62c-1.52-0.9-3.18-1.34-4.97-1.34h-7
		v30.05H354.89z"/>
</g>
</svg>
